<?xml version="1.0" encoding="utf-8"?>
<!-- Generator: Adobe Illustrator 21.1.0, SVG Export Plug-In . SVG Version: 6.00 Build 0)  -->
<svg version="1.1" id="Layer_1" xmlns="http://www.w3.org/2000/svg" xmlns:xlink="http://www.w3.org/1999/xlink" x="0px" y="0px"
	 width="240.6px" height="241.4px" viewBox="0 0 240.6 241.4" enable-background="new 0 0 240.6 241.4" xml:space="preserve">
<g>
	<g>
		<g>
			<path fill="#323A75" d="M95.4,21.6L18.9,32.4C8.8,33.8,1.2,42,0,51.8c-0.3,2.9,2.1,5.3,5,4.9l4.2-0.6c0.9-0.1,1.7-0.5,2.4-1.2
				l4.7-4.4c1.4-1.3,3.4-1.6,5-0.7l5.7,2.9c0.8,0.4,1.7,0.6,2.6,0.4h0c0.9-0.1,1.7-0.5,2.4-1.2l4.7-4.4c1.4-1.3,3.4-1.6,5-0.7
				l5.7,2.9c0.8,0.4,1.7,0.6,2.6,0.4h0c0.9-0.1,1.7-0.5,2.4-1.2l4.7-4.4c1.4-1.3,3.4-1.6,5-0.7l5.7,2.9c0.8,0.4,1.7,0.6,2.6,0.4h0
				c0.9-0.1,1.7-0.5,2.4-1.2l4.7-4.4c1.4-1.3,3.4-1.6,5-0.7l5.7,2.9c0.8,0.4,1.7,0.6,2.6,0.4h0c0.9-0.1,1.7-0.5,2.4-1.2L98,39
				c1.4-1.3,3.4-1.6,5-0.7l5.7,2.9c0.8,0.4,1.7,0.6,2.6,0.4l4.2-0.6c2.9-0.4,4.6-3.4,3.4-6.1C115.2,25.9,105.6,20.1,95.4,21.6z"/>
		</g>
		<g>
			<path fill="#323A75" d="M145.1,21l76.5,10.8c10.1,1.4,17.8,9.6,18.9,19.4c0.3,2.9-2.1,5.3-5,4.9l-4.2-0.6
				c-0.9-0.1-1.7-0.5-2.4-1.2l-4.7-4.4c-1.4-1.3-3.4-1.6-5-0.7l-5.7,2.9c-0.8,0.4-1.7,0.6-2.6,0.4l0,0c-0.9-0.1-1.7-0.5-2.4-1.2
				l-4.7-4.4c-1.4-1.3-3.4-1.6-5-0.7l-5.7,2.9c-0.8,0.4-1.7,0.6-2.6,0.4h0c-0.9-0.1-1.7-0.5-2.4-1.2l-4.7-4.4
				c-1.4-1.3-3.4-1.6-5-0.7l-5.7,2.9c-0.8,0.4-1.7,0.6-2.6,0.4l0,0c-0.9-0.1-1.7-0.5-2.4-1.2l-4.7-4.4c-1.4-1.3-3.4-1.6-5-0.7
				l-5.7,2.9c-0.8,0.4-1.7,0.6-2.6,0.4l0,0c-0.9-0.1-1.7-0.5-2.4-1.2l-4.7-4.4c-1.4-1.3-3.4-1.6-5-0.7l-5.7,2.9
				c-0.8,0.4-1.7,0.6-2.6,0.4l-4.2-0.6c-2.9-0.4-4.6-3.4-3.4-6.1C125.4,25.4,135,19.6,145.1,21z"/>
		</g>
		<g>
			<path fill="#323A75" d="M143.6,36.3L143.6,36.3c1-0.4,1.9-1.1,2.4-2l1.3-2c1.2-1.8,3.4-2.7,5.6-2.2l2.3,0.6
				c1,0.3,2.1,0.2,3.1-0.2v0c1-0.4,1.9-1.1,2.4-2l1.3-2c1.2-1.8,3.4-2.7,5.6-2.2l2.3,0.6c1,0.3,2.1,0.2,3.1-0.2l0,0
				c1-0.4,1.9-1.1,2.4-2l1.3-2c1.2-1.8,3.4-2.7,5.6-2.2l2.3,0.6c1,0.3,2.1,0.2,3.1-0.2v0c1-0.4,1.9-1.1,2.4-2l1.3-2
				c1.2-1.8,3.4-2.7,5.6-2.2l2.3,0.6c1,0.3,2.1,0.2,3.1-0.2l0.6-0.2c3.6-1.4,4.4-6.1,1.6-8.7c-4.6-4.2-11.4-5.7-17.6-3.3L132,22.7
				c-6.2,2.4-10.1,8.1-10.7,14.3c-0.3,3.8,3.5,6.7,7.1,5.3l0.6-0.2c1-0.4,1.9-1.1,2.4-2l1.3-2c1.2-1.8,3.4-2.7,5.6-2.2l2.3,0.6
				C141.5,36.8,142.6,36.7,143.6,36.3z"/>
		</g>
		<g>
			<path fill="#323A75" d="M96.9,36.3L96.9,36.3c-1-0.4-1.9-1.1-2.4-2l-1.3-2c-1.2-1.8-3.4-2.7-5.6-2.2l-2.3,0.6
				c-1,0.3-2.1,0.2-3.1-0.2v0c-1-0.4-1.9-1.1-2.4-2l-1.3-2c-1.2-1.8-3.4-2.7-5.6-2.2L70.6,25c-1,0.3-2.1,0.2-3.1-0.2l0,0
				c-1-0.4-1.9-1.1-2.4-2l-1.3-2c-1.2-1.8-3.4-2.7-5.6-2.2l-2.3,0.6c-1,0.3-2.1,0.2-3.1-0.2l0,0c-1-0.4-1.9-1.1-2.4-2l-1.3-2
				c-1.2-1.8-3.4-2.7-5.6-2.2l-2.3,0.6c-1,0.3-2.1,0.2-3.1-0.2l-0.6-0.2c-3.6-1.4-4.4-6.1-1.6-8.7c4.6-4.2,11.4-5.7,17.6-3.3
				l55.1,21.6c6.2,2.4,10.1,8.1,10.7,14.3c0.3,3.8-3.5,6.7-7.1,5.3l-0.6-0.2c-1-0.4-1.9-1.1-2.4-2l-1.3-2c-1.2-1.8-3.4-2.7-5.6-2.2
				l-2.3,0.6C99,36.8,97.9,36.7,96.9,36.3z"/>
		</g>
		<g>
			<path fill="#323A75" d="M119.7,46.5c-2.5,0-4.9,1.3-6.3,3.4c-5.4,8.4-18.3,32.3-19.9,73.7c-1.7,43.9,16.3,91.3,22.4,106
				c1.2,2.8,3.9,4.6,6.9,4.6H141c4.2,0,6.8-4.4,4.8-8.1c-10-18.5-33.2-64.6-34-96.4c-0.8-33.1,8.4-59,14.7-72.6
				C128.8,52.1,125.1,46.5,119.7,46.5L119.7,46.5z"/>
			<path fill="#323A75" d="M141,234.6h-18.2c-3.2,0-6-1.9-7.2-4.8c-5.7-13.7-24.1-61.9-22.4-106.1c1.6-41.5,14.5-65.5,20-73.9
				c1.5-2.2,3.9-3.6,6.6-3.6c2.7,0,5.2,1.4,6.6,3.6c1.4,2.3,1.6,5,0.5,7.5c-5.8,12.6-15.5,38.9-14.7,72.5c0.8,31.7,24,77.9,34,96.3
				c1,1.8,0.9,4-0.1,5.8C145,233.5,143.1,234.6,141,234.6z M119.7,46.9c-2.4,0-4.7,1.2-6,3.2c-5.4,8.3-18.3,32.2-19.8,73.5
				c-1.7,44.1,16.7,92.2,22.3,105.8c1.1,2.7,3.7,4.4,6.6,4.4H141c1.8,0,3.5-0.9,4.4-2.5c0.9-1.6,1-3.5,0.1-5.1
				c-10-18.4-33.3-64.7-34.1-96.6c-0.8-33.7,8.9-60.1,14.7-72.8c1-2.2,0.8-4.7-0.5-6.8C124.4,48.1,122.1,46.9,119.7,46.9z"/>
		</g>
	</g>
	<ellipse fill="#ECA06F" cx="132.6" cy="229.1" rx="65.7" ry="12.2"/>
</g>
</svg>
